<svg xmlns="http://www.w3.org/2000/svg" width="485.581" height="211.329" viewBox="0 0 485.581 211.329"><defs><style>.a{fill:#738d91;}.b{fill:#fff;}.c{fill:#f2f2f2;}.d{fill:#ededed;}.e{fill:#d1d1d1;}.f{fill:#81afb8;}.g{fill:#949494;}.h{fill:#98ccd6;}.i{fill:#fafafa;}.j{fill:#4a4a4a;}.k{fill:#424242;}.l{fill:#bdbdbd;}.m{fill:#3d3d3d;}.n{fill:#595959;}.o{opacity:0.4;}.p{fill:#bdd8de;}.q{fill:#b2c4cf;}.r{fill:#cadfeb;}.s{fill:#f63;}.t{fill:#b8b8b8;}.u{fill:#e0e0e0;}.v{fill:#ff8733;}.w{fill:#00bbb4;}</style></defs><g transform="translate(0.001 -0.001)"><ellipse class="a" cx="242.79" cy="4.571" rx="242.79" ry="4.571" transform="translate(0 202.188)"/><path class="b" d="M905.886,631.763H481.3l-14.5-.949a3.693,3.693,0,0,1-3.4-3.635V586.344c.516-3.538.646-7.031,1.717-11.189a33.062,33.062,0,0,1,9.646-16.418c6.643-5.953,19.937-11.092,30.454-15.753,8.632-3.822,17.612-7.379,23.765-14.371,0,0,41.965-59.513,56.3-68.642,3.874-2.479,52.392-3.738,60.468-4.113.562,0,211.672-.1,255.722-.032,4.4,0,8.974,5.862,8.974,10.259V627.224a4.519,4.519,0,0,1-4.558,4.539Z" transform="translate(-461.128 -455.8)"/><path class="c" d="M480.774,608.61a39.327,39.327,0,0,0-6.024,4.28,33.061,33.061,0,0,0-9.633,16.444c-1.078,4.158-1.2,7.651-1.717,11.189v2.712H910.431V608.61Z" transform="translate(-461.128 -509.953)"/><path class="d" d="M463.4,700.338a3.693,3.693,0,0,0,3.4,3.635l14.5.949H905.886a4.519,4.519,0,0,0,4.519-4.519V662.24h-447Z" transform="translate(-461.128 -528.958)"/><path class="e" d="M568.682,584.69h-.646c0-2.815-.045-8.942-.1-16.031-.1-14.068-.226-30.015-.077-31.235a12.859,12.859,0,0,1,2.279-4.907c.258-.4.5-.788.717-1.149a162.067,162.067,0,0,1,11.279-15.914c2.344-3.041,4.771-6.185,7-9.361,2.718-3.874,5.313-7.153,7.825-10.33,2.292-2.905,4.661-5.914,7.1-9.342,3.719-5.165,10.633-14.849,18.452-18.768,4.61-2.311,49.712-4.113,60.223-4.113v.646c-10.162,0-55.523,1.814-59.926,4.042-7.67,3.874-14.52,13.416-18.206,18.561-2.46,3.435-4.836,6.456-7.1,9.368-2.505,3.183-5.1,6.456-7.806,10.33-2.24,3.189-4.674,6.334-7.024,9.381a166.513,166.513,0,0,0-11.234,15.85c-.213.362-.465.755-.723,1.162a12.706,12.706,0,0,0-2.182,4.635c-.142,1.175,0,17.793.084,31.145C568.637,575.748,568.682,581.868,568.682,584.69Z" transform="translate(-498.123 -458.542)"/><path class="f" d="M566.747,553.519a16.689,16.689,0,0,1-1.937-.071c2.079-3.951,8.761-15.572,10.975-18.465,2.486-3.228,5.907-8,9.865-13.513,12.144-16.9,30.486-42.4,37.284-44.767.646-.09,7.554-.994,15.824-1.562,9.813-.646,22.364-1.291,28.407-1.588l2.143-.1a1.537,1.537,0,0,1,1.5,1.6v76.589a1.672,1.672,0,0,1-1.614,1.717H626.382q-5.714.039-11.427,0H599.4q-7.806,0-15.553-.032H572.519c-.9,0-1.84.052-2.75.09S567.747,553.519,566.747,553.519Z" transform="translate(-497.066 -462.054)"/><path class="g" d="M668.762,472.42h-.11c-5.165.258-19.42.936-30.479,1.692-8.709.594-15.921,1.569-15.934,1.569-9.1,3.021-36.974,44.767-47.524,58.532-2.486,3.228-10.227,16.825-11.485,19.427a22.181,22.181,0,0,0,2.957.174c1.937,0,3.912-.161,5.81-.174q5.669,0,11.331-.032c10.369,0,20.737.065,31.106.065h19.982c8.709,0,19.265.045,27.936.045h6.327a2.337,2.337,0,0,0,2.273-2.382V474.686a2.2,2.2,0,0,0-2.189-2.266Zm.846,78.855a1.007,1.007,0,0,1-.949,1.052H625.848c-3.5,0-7.237.032-11.427.032-5.165,0-10.452,0-15.546-.032s-10.375,0-15.559,0H571.978c-.917,0-1.859.045-2.77.084s-2.021.084-3.009.084h-.846c2.466-4.565,8.393-14.772,10.427-17.432,2.5-3.228,5.92-8.019,9.884-13.526,12.047-16.786,30.221-42.043,36.9-44.509.962-.129,7.747-1,15.714-1.549,9.807-.646,22.351-1.291,28.407-1.588l2.066-.1h.045a.872.872,0,0,1,.833.936Z" transform="translate(-496.506 -461.689)"/><path class="h" d="M642.113,551.029c-13.558.084-27.116-.078-40.674,0h-4.661a.587.587,0,0,1-.575-.936,119.678,119.678,0,0,1,6.747-11.279c5.249-7.747,9.82-13.952,14.985-20.886,4.707-6.308,9.846-15.714,15.495-21.2,1.6-1.562,3.719-3.951,5.985-4.519,0,0,5.455-.73,12.034-1.169,8.354-.562,19.11-1.065,23.023-1.259a1.64,1.64,0,0,1,1.711,1.685v57.809a1.756,1.756,0,0,1-1.717,1.782C665.335,551.074,650.551,550.977,642.113,551.029Z" transform="translate(-508.148 -467.841)"/><path class="i" d="M1054.448,692.251a47.725,47.725,0,1,0-95.448,0,49.774,49.774,0,0,0,.42,6.4h94.615A51,51,0,0,0,1054.448,692.251Z" transform="translate(-636.761 -522.576)"/><path class="i" d="M535.607,644.07a47.486,47.486,0,0,0-47.717,48.021,49.961,49.961,0,0,0,.42,6.411h94.6a51.146,51.146,0,0,0,.413-6.411A47.48,47.48,0,0,0,535.607,644.07Z" transform="translate(-469.807 -522.519)"/><path class="j" d="M465.432,714.181a4.791,4.791,0,0,1-4.351-3.319c-2.176-7.1-1.143-16.076,1.078-23.888,9.762,0,19.259-.045,29.02-.045v27.264Z" transform="translate(-459.88 -537.708)"/><path class="k" d="M492.267,686.916a48.839,48.839,0,0,0-4.377,20.356,49.957,49.957,0,0,0,.42,6.411h12.8V686.91Z" transform="translate(-469.806 -537.701)"/><path class="j" d="M1127.953,713.457H1088.57V685.34c14.488,0,29.363.065,43.85.065,2.279,7.476,2.66,17.038.387,24.411A5.268,5.268,0,0,1,1127.953,713.457Z" transform="translate(-682.678 -537.145)"/><path class="k" d="M1100.362,706.82a48.692,48.692,0,0,0-4.906-21.48h-6.9v27.884h11.389A50.975,50.975,0,0,0,1100.362,706.82Z" transform="translate(-682.675 -537.145)"/><path d="M538.765,653.53c-23.165,0-41.965,17.67-41.965,40.829a41.753,41.753,0,0,0,.788,8.044h82.329a41.753,41.753,0,0,0,.788-8.044C580.7,671.2,561.923,653.53,538.765,653.53Z" transform="translate(-472.964 -525.872)"/><path d="M1051.8,694.125c0-23.165-18.774-40.835-41.965-40.835S967.87,670.96,967.87,694.125a41.74,41.74,0,0,0,.839,8.044h82.31A42.277,42.277,0,0,0,1051.8,694.125Z" transform="translate(-639.904 -525.787)"/><path d="M848.435,725.666H616.291c-.73,0-1.291-1.194-1.291-2.66V715H849.759v8.006C849.759,724.471,849.165,725.666,848.435,725.666Z" transform="translate(-514.852 -547.656)"/><path d="M541.28,664.16A35.943,35.943,0,1,0,577.57,700.1,36.133,36.133,0,0,0,541.28,664.16Z" transform="translate(-475.867 -529.639)"/><path class="l" d="M548.875,685a22.461,22.461,0,1,0,22.467,22.487A22.461,22.461,0,0,0,548.875,685Z" transform="translate(-483.461 -537.024)"/><path d="M550.051,688.1a20.485,20.485,0,1,0,20.66,20.485,20.485,20.485,0,0,0-20.66-20.485Z" transform="translate(-484.638 -538.123)"/><path class="l" d="M559.848,709.62l10.911-3.557-2.653-8.2-10.7,3.461a2.456,2.456,0,0,1-3.428-2.5V687.34h-8.587v11.285a2.464,2.464,0,0,1-3.428,2.5l-10.911-3.557-2.654,8.206,10.691,3.486a2.462,2.462,0,0,1,1.291,4.042l-6.721,9.329,6.953,5.068,6.6-9.129a2.457,2.457,0,0,1,4.235,0l6.74,9.31,6.953-5.068-6.6-9.129A2.485,2.485,0,0,1,559.848,709.62Z" transform="translate(-484.163 -537.854)"/><path d="M558.684,712.65a4.655,4.655,0,1,0,3.306,1.345A4.635,4.635,0,0,0,558.684,712.65Z" transform="translate(-493.27 -546.823)"/><path d="M560.173,706.54a1.666,1.666,0,1,0,1.679,1.666,1.666,1.666,0,0,0-1.679-1.666Z" transform="translate(-494.837 -544.658)"/><path d="M549.483,714.956a1.691,1.691,0,0,0-2.118,1.072,1.666,1.666,0,0,0,1.078,2.1,1.685,1.685,0,0,0,2.118-1.072,1.665,1.665,0,0,0-1.078-2.1Z" transform="translate(-490.855 -547.612)"/><path d="M554.473,728.283a1.685,1.685,0,0,0-2.35.368,1.64,1.64,0,0,0,.374,2.318,1.685,1.685,0,0,0,2.344-.362,1.653,1.653,0,0,0-.368-2.324Z" transform="translate(-492.456 -552.249)"/><path d="M566.489,728.074a1.653,1.653,0,0,0-.375,2.324,1.685,1.685,0,0,0,2.35.368,1.653,1.653,0,0,0,.368-2.324,1.679,1.679,0,0,0-2.344-.368Z" transform="translate(-497.415 -552.175)"/><path d="M571.082,714.594a1.653,1.653,0,0,0-1.078,2.1,1.679,1.679,0,1,0,1.078-2.1Z" transform="translate(-498.877 -547.482)"/><path class="m" d="M541.28,663.62a36.29,36.29,0,1,0,36.29,36.29A36.29,36.29,0,0,0,541.28,663.62Zm0,66.576a30.292,30.292,0,1,1,30.292-30.29A30.292,30.292,0,0,1,541.28,730.2Z" transform="translate(-475.867 -529.448)"/><path class="n" d="M559.7,663.646l-.73.872c-.471.562-.575,1.24-.239,1.53s.988.052,1.459-.5l1.22-1.459a1.938,1.938,0,0,0,.278-.426h-1.207A5.3,5.3,0,0,0,559.7,663.646Z" transform="translate(-494.842 -529.454)"/><path class="n" d="M552.5,664.105l-.607.955c-.394.613-.407,1.291-.039,1.543s.988-.071,1.382-.684l1.02-1.608a2.077,2.077,0,0,0,.219-.452c-.4.039-.8.071-1.2.123Z" transform="translate(-492.38 -529.533)"/><path class="n" d="M545.461,665.514l-.484,1.027c-.3.646-.232,1.343.168,1.53s.975-.2,1.291-.859l.8-1.724a2.077,2.077,0,0,0,.161-.478c-.394.09-.781.174-1.175.278Z" transform="translate(-489.971 -529.94)"/><path class="n" d="M538.662,667.845l-.336,1.078c-.219.7-.058,1.369.362,1.5s.936-.323,1.156-1.02l.568-1.808a2.1,2.1,0,0,0,.1-.5c-.375.142-.755.278-1.13.433C539.14,667.626,538.907,667.742,538.662,667.845Z" transform="translate(-487.646 -530.677)"/><path class="n" d="M532.235,671.068l-.194,1.117c-.129.717.123,1.362.555,1.44s.891-.445,1.014-1.169l.329-1.866a1.975,1.975,0,0,0,0-.51c-.355.187-.7.374-1.059.575Z" transform="translate(-485.441 -531.737)"/><path class="n" d="M526.9,674.61c-.207.161-.4.336-.607.5l-.052,1.13c0,.723.3,1.336.736,1.356s.826-.555.859-1.291l.077-1.9a2.04,2.04,0,0,0-.039-.5C527.551,674.145,527.221,674.378,526.9,674.61Z" transform="translate(-483.397 -533.091)"/><path class="n" d="M522.387,679.041a2.281,2.281,0,0,0-.1-.491c-.3.271-.588.542-.878.833-.181.181-.355.381-.536.568l.1,1.123c.065.73.471,1.291.91,1.253s.742-.646.678-1.388Z" transform="translate(-481.494 -534.739)"/><path class="n" d="M517.5,684.358a2.081,2.081,0,0,0-.168-.478c-.258.31-.516.646-.762.936l-.458.646.239,1.1c.161.71.646,1.214,1.065,1.117s.646-.755.491-1.466Z" transform="translate(-479.807 -536.628)"/><path class="n" d="M513.313,690.282a1.862,1.862,0,0,0-.233-.452c-.213.342-.42.646-.646,1.026-.129.226-.245.458-.375.691l.387,1.065c.252.684.788,1.117,1.2.969s.549-.826.3-1.511Z" transform="translate(-478.372 -538.736)"/><path class="n" d="M510.029,696.71a2.073,2.073,0,0,0-.284-.42c-.168.362-.336.73-.491,1.1-.1.245-.187.491-.284.736l.523,1.007c.336.646.923,1.007,1.291.8s.433-.9.1-1.537Z" transform="translate(-477.277 -541.025)"/><path class="n" d="M507.585,703.524a2.127,2.127,0,0,0-.342-.375c-.116.381-.232.768-.342,1.156-.065.258-.123.51-.181.768l.646.923c.42.6,1.046.878,1.414.646s.31-.943-.11-1.536Z" transform="translate(-476.48 -543.456)"/><path class="n" d="M506.049,710.629a2.283,2.283,0,0,0-.387-.329c-.065.394-.129.788-.187,1.188a6.275,6.275,0,0,1-.084.781l.768.839c.491.536,1.156.73,1.478.433s.187-.975-.31-1.511Z" transform="translate(-476.008 -545.99)"/><path class="n" d="M506.933,719.1l-1.485-1.252a1.935,1.935,0,0,0-.426-.278c0,.4,0,.8-.032,1.207v.788l.865.723c.555.471,1.24.581,1.524.239S507.463,719.565,506.933,719.1Z" transform="translate(-475.867 -548.567)"/><path class="n" d="M507.29,726.2l-1.6-1.02a1.982,1.982,0,0,0-.458-.219c.039.4.077.8.129,1.2.039.258.084.516.123.775l.956.607c.613.394,1.291.413,1.543.039S507.909,726.593,507.29,726.2Z" transform="translate(-475.952 -551.186)"/><path class="n" d="M508.588,733.192l-1.724-.807a1.763,1.763,0,0,0-.484-.155c.09.387.181.775.284,1.169.071.252.149.5.226.749l1.027.484c.646.3,1.343.232,1.53-.168S509.247,733.5,508.588,733.192Z" transform="translate(-476.359 -553.762)"/><path class="n" d="M510.781,739.939l-1.814-.575a1.936,1.936,0,0,0-.5-.084c.142.375.278.749.433,1.123.1.239.213.471.316.717l1.085.342c.691.213,1.362.052,1.5-.368S511.479,740.158,510.781,739.939Z" transform="translate(-477.1 -556.26)"/><path class="n" d="M513.836,746.35l-1.866-.329a1.97,1.97,0,0,0-.51,0c.187.349.374.71.574,1.059.136.226.278.445.407.646l1.117.194c.717.129,1.362-.123,1.44-.555S514.552,746.473,513.836,746.35Z" transform="translate(-478.16 -558.643)"/><path class="n" d="M517.682,752.283l-1.9-.084a2.1,2.1,0,0,0-.5.039c.232.323.465.646.71.975.161.207.329.407.491.607l1.136.052c.723.032,1.33-.3,1.356-.736S518.424,752.309,517.682,752.283Z" transform="translate(-479.513 -560.838)"/><path class="n" d="M522.312,757.545l-1.892.168a2.194,2.194,0,0,0-.491.1c.271.3.542.588.826.878l.575.536,1.123-.1c.723-.058,1.291-.471,1.246-.91S523.042,757.481,522.312,757.545Z" transform="translate(-481.161 -562.73)"/><path class="n" d="M527.591,762.111l-1.853.407a2.087,2.087,0,0,0-.478.174c.31.252.646.51.936.755l.646.465,1.1-.252c.71-.155,1.207-.646,1.117-1.065S528.32,761.95,527.591,762.111Z" transform="translate(-483.05 -564.333)"/><path class="n" d="M533.44,765.931l-1.782.646a2.172,2.172,0,0,0-.458.232l1.033.646c.226.129.458.252.691.374l1.065-.387c.684-.245,1.117-.781.968-1.2S534.125,765.68,533.44,765.931Z" transform="translate(-485.155 -565.661)"/><path class="n" d="M539.771,768.953l-1.685.872a1.9,1.9,0,0,0-.426.291c.368.161.736.329,1.11.484.239.1.484.187.729.284l1.007-.523c.646-.336,1-.923.8-1.291S540.417,768.611,539.771,768.953Z" transform="translate(-487.444 -566.7)"/><path class="n" d="M546.46,771.1l-1.549,1.085a1.991,1.991,0,0,0-.381.342c.381.116.762.232,1.156.342l.762.187.93-.646c.594-.42.878-1.046.646-1.414S547.061,770.678,546.46,771.1Z" transform="translate(-489.879 -567.412)"/><path class="n" d="M553.41,772.379l-1.4,1.291a1.813,1.813,0,0,0-.329.387c.394.065.788.136,1.188.187l.781.084.839-.768c.536-.491.73-1.156.433-1.478S553.946,771.882,553.41,772.379Z" transform="translate(-492.413 -567.821)"/><path class="n" d="M560.488,772.73l-1.22,1.453a2.276,2.276,0,0,0-.278.426h1.989l.729-.872c.465-.555.575-1.24.239-1.524S560.933,772.162,560.488,772.73Z" transform="translate(-495.003 -567.888)"/><path class="n" d="M568.961,771.5c-.375-.232-.988.071-1.382.691l-1.02,1.595a2.16,2.16,0,0,0-.219.465c.394-.039.794-.078,1.194-.129.265-.032.523-.084.781-.123l.607-.955C569.31,772.44,569.349,771.736,568.961,771.5Z" transform="translate(-497.608 -567.65)"/><path class="n" d="M575.833,769.874c-.4-.187-.975.2-1.291.865l-.807,1.717a2.012,2.012,0,0,0-.155.484c.387-.09.781-.181,1.169-.284.258-.065.5-.148.755-.226l.478-1.027C576.3,770.752,576.234,770.061,575.833,769.874Z" transform="translate(-500.174 -567.086)"/><path class="n" d="M582.471,767.388c-.42-.129-.936.323-1.156,1.027l-.575,1.808a1.968,1.968,0,0,0-.09.5c.375-.142.749-.278,1.123-.433l.723-.323.336-1.078C583.052,768.2,582.89,767.524,582.471,767.388Z" transform="translate(-502.679 -566.214)"/><path class="n" d="M588.744,764.086c-.432-.078-.891.439-1.014,1.162l-.329,1.866a1.986,1.986,0,0,0,0,.51c.349-.187.7-.374,1.059-.575.226-.129.445-.271.646-.413l.194-1.117C589.428,764.8,589.176,764.163,588.744,764.086Z" transform="translate(-505.066 -565.049)"/><path class="n" d="M594.482,760c-.439,0-.826.562-.852,1.291l-.09,1.9a2.1,2.1,0,0,0,.045.5c.323-.232.646-.465.968-.71.213-.161.413-.329.646-.491l.052-1.136C595.27,760.646,594.94,760.032,594.482,760Z" transform="translate(-507.247 -563.603)"/><path class="n" d="M599.623,755.259c-.439.039-.742.646-.678,1.388l.168,1.885a1.741,1.741,0,0,0,.11.5c.284-.278.581-.549.865-.833.187-.187.362-.381.542-.575l-.1-1.123C600.456,755.776,600.049,755.22,599.623,755.259Z" transform="translate(-509.16 -561.922)"/><path class="n" d="M603.973,749.884c-.426.1-.646.755-.491,1.466l.413,1.853a2.086,2.086,0,0,0,.168.478c.252-.3.51-.646.755-.936.161-.207.31-.426.465-.646l-.245-1.1C604.884,750.291,604.406,749.794,603.973,749.884Z" transform="translate(-510.753 -560.015)"/><path class="n" d="M607.6,743.986c-.413.155-.549.833-.3,1.517l.646,1.788a1.623,1.623,0,0,0,.232.446c.207-.336.42-.646.646-1.027.129-.226.245-.458.375-.691l-.387-1.065C608.546,744.283,608.011,743.851,607.6,743.986Z" transform="translate(-512.079 -557.919)"/><path class="n" d="M610.413,737.691c-.387.207-.433.9-.1,1.543l.878,1.685a1.932,1.932,0,0,0,.291.413c.161-.361.329-.723.484-1.1l.284-.736-.523-1C611.395,737.871,610.807,737.49,610.413,737.691Z" transform="translate(-513.113 -555.678)"/><path class="n" d="M612.369,731.07c-.355.252-.31.943.11,1.543l1.085,1.556a2.406,2.406,0,0,0,.342.374c.116-.381.232-.762.342-1.156.065-.252.116-.51.181-.762l-.646-.93C613.338,731.1,612.731,730.818,612.369,731.07Z" transform="translate(-513.836 -553.318)"/><path class="n" d="M613.444,724.254c-.323.3-.187.975.3,1.511l1.291,1.4a2.06,2.06,0,0,0,.387.336c.064-.4.129-.794.187-1.194a6.28,6.28,0,0,1,.084-.781l-.768-.839C614.432,724.15,613.741,723.957,613.444,724.254Z" transform="translate(-514.239 -550.886)"/><path class="n" d="M615.1,717.592c-.562-.465-1.24-.575-1.524-.239s-.058.994.5,1.459l1.446,1.22a1.889,1.889,0,0,0,.433.278q0-.6,0-1.2v-.788Z" transform="translate(-514.303 -548.421)"/><path class="n" d="M615.371,711.137l-.956-.613c-.613-.387-1.291-.407-1.543-.039s.071.988.691,1.382l1.595,1.026a2.124,2.124,0,0,0,.465.213c-.045-.4-.077-.794-.129-1.2C615.455,711.647,615.41,711.369,615.371,711.137Z" transform="translate(-514.068 -545.962)"/><path class="n" d="M613.817,704.081l-1.033-.484c-.646-.3-1.343-.232-1.53.161s.194.981.859,1.291l1.724.807a2.01,2.01,0,0,0,.484.155c-.1-.394-.181-.781-.284-1.169C613.965,704.578,613.881,704.333,613.817,704.081Z" transform="translate(-513.508 -543.548)"/><path class="n" d="M611.349,697.291l-1.085-.342c-.691-.213-1.362-.052-1.5.368s.323.943,1.02,1.156l1.808.575a2.072,2.072,0,0,0,.5.09c-.142-.375-.278-.749-.433-1.123C611.562,697.762,611.446,697.53,611.349,697.291Z" transform="translate(-512.635 -541.225)"/><path class="n" d="M608.012,690.876l-1.117-.194c-.717-.123-1.356.123-1.44.555s.445.884,1.169,1.014l1.866.336a2.791,2.791,0,0,0,.51,0c-.187-.355-.374-.71-.575-1.059C608.289,691.309,608.147,691.089,608.012,690.876Z" transform="translate(-511.467 -539.027)"/><path class="n" d="M603.882,684.9l-1.136-.045c-.73-.032-1.33.3-1.356.736s.555.826,1.291.852l1.9.09a1.851,1.851,0,0,0,.51-.045c-.232-.323-.465-.646-.71-.975C604.211,685.311,604.043,685.117,603.882,684.9Z" transform="translate(-510.029 -536.974)"/><path class="n" d="M599.011,679.49l-1.13.1c-.723.065-1.291.471-1.253.9s.646.749,1.388.678l1.892-.155a2.252,2.252,0,0,0,.5-.11c-.271-.29-.542-.581-.826-.872C599.392,679.819,599.192,679.671,599.011,679.49Z" transform="translate(-508.341 -535.072)"/><path class="n" d="M593.492,674.72l-1.111.252c-.71.155-1.207.646-1.117,1.059s.749.646,1.466.5l1.853-.407a2.445,2.445,0,0,0,.478-.174c-.31-.252-.613-.51-.936-.755A5.952,5.952,0,0,1,593.492,674.72Z" transform="translate(-506.437 -533.381)"/><path class="n" d="M587.408,670.74l-1.065.387c-.684.252-1.117.788-.968,1.2s.826.549,1.517.3l1.782-.646a1.989,1.989,0,0,0,.452-.239c-.342-.207-.646-.42-1.026-.646C587.866,670.985,587.634,670.869,587.408,670.74Z" transform="translate(-504.343 -531.971)"/><path class="n" d="M580.877,667.59l-1.007.529c-.646.329-1,.917-.8,1.291s.891.439,1.536.1l1.685-.872a2.384,2.384,0,0,0,.42-.291c-.362-.168-.723-.336-1.1-.491Z" transform="translate(-502.099 -530.855)"/><path class="n" d="M574,665.34l-.93.646c-.594.413-.878,1.046-.646,1.407s.943.316,1.543-.11l1.549-1.085a2.2,2.2,0,0,0,.381-.342c-.381-.116-.762-.232-1.156-.342Z" transform="translate(-499.736 -530.057)"/><path class="n" d="M566.9,664l-.839.768c-.536.491-.729,1.156-.439,1.478s.981.194,1.517-.31l1.4-1.291a2.05,2.05,0,0,0,.329-.394l-1.188-.187Z" transform="translate(-497.307 -529.582)"/><path d="M1012.42,665.33a35.943,35.943,0,1,0,36.29,35.941A36.138,36.138,0,0,0,1012.42,665.33Z" transform="translate(-642.831 -530.054)"/><path class="l" d="M1020.036,686.22a22.454,22.454,0,1,0,22.493,22.454,22.454,22.454,0,0,0-22.493-22.454Z" transform="translate(-650.447 -537.457)"/><path d="M1021.191,689.27a20.485,20.485,0,1,0,20.66,20.485A20.485,20.485,0,0,0,1021.191,689.27Z" transform="translate(-651.602 -538.538)"/><path class="l" d="M1030.977,710.781l10.911-3.557-2.679-8.186-10.692,3.486a2.464,2.464,0,0,1-3.428-2.5v-11.5H1016.5v11.285a2.463,2.463,0,0,1-3.422,2.505l-10.911-3.557-2.653,8.2,10.691,3.486a2.473,2.473,0,0,1,1.291,4.042l-6.74,9.316,6.953,5.068,6.6-9.129a2.457,2.457,0,0,1,4.235,0l6.74,9.31,6.953-5.075-6.6-9.129A2.516,2.516,0,0,1,1030.977,710.781Z" transform="translate(-651.117 -538.272)"/><path d="M1029.824,713.82a4.636,4.636,0,1,0,4.687,4.636A4.635,4.635,0,0,0,1029.824,713.82Z" transform="translate(-660.235 -547.238)"/><path d="M1031.313,707.71a1.666,1.666,0,1,0,1.679,1.666A1.666,1.666,0,0,0,1031.313,707.71Z" transform="translate(-661.801 -545.073)"/><path d="M1020.623,716.1a1.692,1.692,0,0,0-2.118,1.072,1.673,1.673,0,1,0,2.118-1.072Z" transform="translate(-657.819 -548.016)"/><path d="M1025.613,729.455a1.692,1.692,0,0,0-2.35.368,1.652,1.652,0,0,0,.368,2.324,1.7,1.7,0,0,0,2.35-.368,1.653,1.653,0,0,0-.368-2.324Z" transform="translate(-659.42 -552.665)"/><path d="M1037.621,729.252a1.652,1.652,0,0,0-.368,2.324,1.692,1.692,0,0,0,2.344.368,1.659,1.659,0,0,0,.374-2.331A1.685,1.685,0,0,0,1037.621,729.252Z" transform="translate(-664.378 -552.592)"/><path d="M1042.22,715.765a1.659,1.659,0,0,0-1.085,2.1,1.679,1.679,0,1,0,1.085-2.1Z" transform="translate(-665.839 -547.898)"/><path class="m" d="M1012.42,664.79a36.287,36.287,0,1,0,.006,0Zm0,66.582a30.292,30.292,0,1,1,30.292-30.292A30.292,30.292,0,0,1,1012.42,731.372Z" transform="translate(-642.831 -529.862)"/><path class="n" d="M1030.841,664.809l-.73.865c-.471.562-.575,1.24-.239,1.53s.988.058,1.459-.5l1.22-1.459a2.046,2.046,0,0,0,.278-.42c-.4,0-.8-.032-1.207-.032C1031.357,664.79,1031.1,664.8,1030.841,664.809Z" transform="translate(-661.807 -529.862)"/><path class="n" d="M1023.648,665.275l-.607.962c-.394.646-.413,1.291-.039,1.537s.988-.071,1.382-.684l1.02-1.608a2.073,2.073,0,0,0,.219-.452c-.4.039-.8.077-1.2.129Z" transform="translate(-659.347 -529.947)"/><path class="n" d="M1016.63,666.724l-.484,1.027c-.31.646-.232,1.343.168,1.537s.968-.2,1.291-.865l.8-1.724a2.089,2.089,0,0,0,.161-.478c-.387.09-.781.181-1.175.284A2.923,2.923,0,0,0,1016.63,666.724Z" transform="translate(-656.945 -530.369)"/><path class="n" d="M1009.76,669.015l-.336,1.085c-.226.691-.058,1.362.361,1.5s.936-.329,1.156-1.02l.568-1.814a2.1,2.1,0,0,0,.1-.5c-.374.142-.755.284-1.13.439C1010.264,668.8,1010.025,668.912,1009.76,669.015Z" transform="translate(-654.595 -531.092)"/><path class="n" d="M1003.375,672.238l-.194,1.117c-.129.717.116,1.362.555,1.44s.884-.445,1.014-1.169l.329-1.866a1.987,1.987,0,0,0,0-.51l-1.059.581C1003.82,671.96,1003.6,672.1,1003.375,672.238Z" transform="translate(-652.406 -532.152)"/><path class="n" d="M998.039,675.8c-.207.155-.407.329-.607.491l-.052,1.136c0,.723.3,1.33.736,1.349s.82-.555.852-1.291l.084-1.9a2.21,2.21,0,0,0-.039-.51C998.684,675.325,998.361,675.558,998.039,675.8Z" transform="translate(-650.362 -533.509)"/><path class="n" d="M993.524,680.217a2,2,0,0,0-.11-.5c-.29.278-.581.542-.872.833-.181.181-.362.381-.542.568l.1,1.13c.065.723.471,1.291.91,1.246s.742-.646.646-1.388Z" transform="translate(-648.455 -535.153)"/><path class="n" d="M988.628,685.531a2.019,2.019,0,0,0-.161-.471c-.258.3-.516.646-.762.936l-.465.646.245,1.1c.161.71.646,1.214,1.065,1.123s.646-.755.491-1.465Z" transform="translate(-646.768 -537.046)"/><path class="n" d="M984.482,691.452a2.124,2.124,0,0,0-.232-.452c-.213.342-.42.646-.646,1.033-.129.226-.252.458-.374.684l.387,1.072c.245.646.781,1.11,1.194.962s.549-.826.3-1.511Z" transform="translate(-645.347 -539.151)"/><path class="n" d="M981.169,697.88a1.855,1.855,0,0,0-.291-.42c-.161.368-.329.73-.491,1.1-.1.245-.181.491-.278.73l.523,1.007c.336.646.923,1.007,1.291.8s.433-.891.1-1.537Z" transform="translate(-644.242 -541.44)"/><path class="n" d="M978.719,704.7a2.436,2.436,0,0,0-.336-.381c-.116.387-.239.768-.342,1.162-.071.252-.123.51-.181.762l.646.93c.413.594,1.046.872,1.414.646s.31-.943-.11-1.536Z" transform="translate(-643.444 -543.871)"/><path class="n" d="M977.189,711.816a2.057,2.057,0,0,0-.387-.336c-.065.4-.136.794-.187,1.194a6.429,6.429,0,0,1-.084.781l.768.833c.491.536,1.149.736,1.478.439s.187-.975-.31-1.517Z" transform="translate(-642.973 -546.409)"/><path class="n" d="M978.059,720.288l-1.453-1.227a2.231,2.231,0,0,0-.426-.271v1.988l.872.73c.555.465,1.24.575,1.524.239S978.646,720.753,978.059,720.288Z" transform="translate(-642.849 -548.999)"/><path class="n" d="M978.43,727.37l-1.6-1.014a1.882,1.882,0,0,0-.458-.226c.039.4.077.8.129,1.2a5.229,5.229,0,0,0,.123.775l.956.613c.646.387,1.291.407,1.543.039S979.049,727.763,978.43,727.37Z" transform="translate(-642.916 -551.6)"/><path class="n" d="M979.722,734.362,978,733.555a2.108,2.108,0,0,0-.484-.155c.09.387.181.781.284,1.169.071.252.148.5.219.755l1.027.478c.646.31,1.349.232,1.537-.161S980.412,734.665,979.722,734.362Z" transform="translate(-643.324 -554.177)"/><path class="n" d="M981.921,741.115l-1.814-.575a2.022,2.022,0,0,0-.5-.09c.142.374.278.749.433,1.123l.316.717,1.085.342c.691.22,1.362.052,1.5-.362S982.619,741.328,981.921,741.115Z" transform="translate(-644.064 -556.675)"/><path class="n" d="M984.976,747.519l-1.872-.329a1.936,1.936,0,0,0-.5-.032c.187.355.374.71.575,1.059.136.232.278.446.407.646l1.117.194c.717.129,1.362-.116,1.44-.549S985.693,747.642,984.976,747.519Z" transform="translate(-645.124 -559.051)"/><path class="n" d="M988.842,753.453l-1.9-.084a2.106,2.106,0,0,0-.5.039c.232.323.465.646.71.981.161.2.329.4.491.607l1.136.045c.723,0,1.33-.3,1.356-.736S989.571,753.485,988.842,753.453Z" transform="translate(-646.485 -561.253)"/><path class="n" d="M993.452,758.725l-1.892.161a2.191,2.191,0,0,0-.491.11c.271.291.542.588.826.872l.575.542,1.123-.1c.723-.065,1.291-.471,1.246-.91S994.182,758.661,993.452,758.725Z" transform="translate(-648.126 -563.148)"/><path class="n" d="M998.717,763.282l-1.853.413a2.139,2.139,0,0,0-.484.168c.316.252.646.51.943.755.207.161.426.31.646.465l1.11-.245c.7-.155,1.207-.646,1.117-1.065S999.434,763.12,998.717,763.282Z" transform="translate(-650.008 -564.748)"/><path class="n" d="M1004.58,767.1l-1.782.646a2.176,2.176,0,0,0-.458.232c.342.213.684.426,1.033.646.226.136.458.252.691.381l1.065-.387c.678-.252,1.117-.788.968-1.207S1005.265,766.85,1004.58,767.1Z" transform="translate(-652.12 -566.076)"/><path class="n" d="M1010.911,770.123l-1.691.872a2.013,2.013,0,0,0-.42.29c.368.161.73.336,1.1.491l.736.284,1.007-.529c.646-.329,1-.923.8-1.291S1011.557,769.781,1010.911,770.123Z" transform="translate(-654.409 -567.115)"/><path class="n" d="M1017.6,772.278l-1.55,1.085a1.938,1.938,0,0,0-.381.336c.381.116.762.239,1.156.349l.762.181.93-.646c.594-.413.878-1.046.646-1.407S1018.194,771.852,1017.6,772.278Z" transform="translate(-656.844 -567.831)"/><path class="n" d="M1024.55,773.545l-1.4,1.291a1.64,1.64,0,0,0-.329.381c.387.065.788.136,1.188.187.265.039.523.052.781.084l.833-.762c.542-.5.736-1.156.439-1.478S1025.086,773.022,1024.55,773.545Z" transform="translate(-659.377 -568.232)"/><path class="n" d="M1031.628,773.915l-1.22,1.453a2,2,0,0,0-.278.426c.394,0,.8.032,1.2.032h.788l.723-.871c.471-.555.581-1.24.245-1.524S1032.093,773.353,1031.628,773.915Z" transform="translate(-661.968 -568.318)"/><path class="n" d="M1040.095,772.669c-.368-.226-.988.077-1.375.691l-1.027,1.6a2.485,2.485,0,0,0-.213.465c.394-.045.794-.077,1.194-.129l.775-.123.646-.955C1040.45,773.605,1040.469,772.908,1040.095,772.669Z" transform="translate(-664.573 -568.066)"/><path class="n" d="M1046.973,771.044c-.4-.187-.975.2-1.291.865l-.807,1.717a2.205,2.205,0,0,0-.155.484c.387-.09.781-.174,1.169-.284.258-.065.5-.148.755-.219l.478-1.027C1047.445,771.922,1047.374,771.238,1046.973,771.044Z" transform="translate(-667.138 -567.5)"/><path class="n" d="M1053.611,768.558c-.42-.129-.936.329-1.156,1.027l-.575,1.808a2.08,2.08,0,0,0-.09.5c.374-.136.749-.278,1.123-.433.245-.1.478-.213.723-.316l.336-1.078C1054.192,769.365,1054.03,768.694,1053.611,768.558Z" transform="translate(-669.644 -566.628)"/><path class="n" d="M1059.882,765.256c-.432-.071-.891.445-1.013,1.169l-.329,1.866a1.691,1.691,0,0,0,0,.5c.349-.187.7-.368,1.059-.568.226-.136.439-.278.646-.413l.194-1.117C1060.56,765.979,1060.315,765.334,1059.882,765.256Z" transform="translate(-672.029 -565.464)"/><path class="n" d="M1065.651,761.19c-.439,0-.826.555-.859,1.291l-.084,1.9a1.857,1.857,0,0,0,.045.51c.316-.239.646-.465.968-.71l.646-.5.052-1.13C1066.42,761.816,1066.084,761.209,1065.651,761.19Z" transform="translate(-674.221 -564.025)"/><path class="n" d="M1070.756,756.429c-.432.039-.742.646-.646,1.388l.162,1.892a1.928,1.928,0,0,0,.11.5c.291-.271.587-.549.872-.833s.362-.381.542-.568l-.1-1.13C1071.6,756.952,1071.195,756.4,1070.756,756.429Z" transform="translate(-676.13 -562.337)"/><path class="n" d="M1075.113,751.063c-.426.1-.646.749-.491,1.459l.413,1.859a2.078,2.078,0,0,0,.168.478c.252-.31.51-.646.755-.943.161-.207.31-.42.465-.646l-.245-1.11C1076.024,751.47,1075.546,750.967,1075.113,751.063Z" transform="translate(-677.718 -560.432)"/><path class="n" d="M1078.768,745.178c-.413.155-.549.826-.291,1.517l.646,1.782a2,2,0,0,0,.239.452c.206-.342.42-.646.646-1.026.129-.233.245-.465.375-.691l-.387-1.065C1079.7,745.462,1079.162,745.055,1078.768,745.178Z" transform="translate(-679.055 -558.343)"/><path class="n" d="M1081.553,738.86c-.387.207-.433.9-.1,1.543l.872,1.685a2.316,2.316,0,0,0,.3.42c.161-.368.329-.73.484-1.1.1-.239.187-.491.284-.729l-.523-1.007C1082.528,739.021,1081.94,738.66,1081.553,738.86Z" transform="translate(-680.077 -556.092)"/><path class="n" d="M1083.509,732.241c-.355.258-.31.949.11,1.543l1.085,1.562a2.384,2.384,0,0,0,.342.375c.116-.387.233-.768.342-1.156.065-.258.123-.517.181-.768l-.646-.93C1084.5,732.273,1083.871,732,1083.509,732.241Z" transform="translate(-680.8 -553.734)"/><path class="n" d="M1084.577,725.426c-.316.3-.181.975.31,1.517l1.291,1.395a2.333,2.333,0,0,0,.394.336c.058-.394.129-.794.187-1.188a6.509,6.509,0,0,1,.084-.788l-.768-.833C1085.571,725.329,1084.906,725.135,1084.577,725.426Z" transform="translate(-681.202 -551.303)"/><path class="n" d="M1086.276,718.762c-.562-.465-1.24-.575-1.523-.239s-.058.994.5,1.459l1.453,1.227a2.092,2.092,0,0,0,.432.271v-1.988Z" transform="translate(-681.282 -548.835)"/><path class="n" d="M1086.511,712.307l-.956-.613c-.646-.387-1.291-.407-1.543-.039s.071.994.684,1.382l1.6,1.027a2.137,2.137,0,0,0,.465.213c-.045-.394-.078-.794-.129-1.194C1086.6,712.817,1086.556,712.565,1086.511,712.307Z" transform="translate(-681.033 -546.377)"/><path class="n" d="M1084.957,705.253l-1.033-.478c-.646-.31-1.343-.232-1.53.161s.193.975.858,1.291l1.717.807a2.124,2.124,0,0,0,.491.149c-.09-.387-.181-.775-.284-1.169C1085.105,705.75,1085.022,705.5,1084.957,705.253Z" transform="translate(-680.473 -543.965)"/><path class="n" d="M1082.483,698.46l-1.078-.342c-.691-.213-1.362-.058-1.5.362s.323.943,1.02,1.156l1.808.575a2.068,2.068,0,0,0,.5.09c-.142-.368-.277-.749-.439-1.123C1082.7,698.938,1082.586,698.7,1082.483,698.46Z" transform="translate(-679.6 -541.639)"/><path class="n" d="M1079.152,692.033l-1.117-.2c-.717-.123-1.362.123-1.44.555s.445.891,1.162,1.014l1.872.336a2.306,2.306,0,0,0,.51,0c-.187-.355-.375-.71-.575-1.059Z" transform="translate(-678.432 -539.435)"/><path class="n" d="M1075.015,686.085l-1.13-.045c-.73,0-1.336.3-1.356.73s.555.826,1.291.859l1.892.084a1.852,1.852,0,0,0,.51-.045c-.233-.323-.465-.646-.71-.969C1075.351,686.492,1075.183,686.292,1075.015,686.085Z" transform="translate(-676.993 -537.393)"/><path class="n" d="M1070.145,680.66l-1.13.1c-.723.065-1.291.471-1.246.91s.646.742,1.388.646l1.892-.161a2.246,2.246,0,0,0,.5-.11c-.271-.291-.542-.581-.827-.872A4.475,4.475,0,0,1,1070.145,680.66Z" transform="translate(-675.306 -535.486)"/><path class="n" d="M1064.624,675.9l-1.1.245c-.71.161-1.214.646-1.117,1.065s.749.646,1.466.491l1.853-.407a2.455,2.455,0,0,0,.478-.174c-.31-.252-.646-.5-.936-.755Z" transform="translate(-673.401 -533.799)"/><path class="n" d="M1058.548,671.91l-1.065.387c-.684.252-1.117.788-.968,1.2s.826.549,1.517.3l1.782-.646a2.113,2.113,0,0,0,.452-.232c-.342-.213-.646-.426-1.027-.646C1059.006,672.155,1058.754,672.039,1058.548,671.91Z" transform="translate(-671.308 -532.385)"/><path class="n" d="M1051.977,668.76l-1.007.529c-.646.336-1,.923-.8,1.291s.891.439,1.537.1l1.685-.872a1.855,1.855,0,0,0,.42-.29c-.362-.161-.723-.329-1.1-.491Z" transform="translate(-669.05 -531.269)"/><path class="n" d="M1045.094,666.51l-.923.646c-.6.413-.878,1.046-.646,1.407s.942.316,1.536-.1l1.556-1.091a1.779,1.779,0,0,0,.381-.342c-.381-.11-.762-.232-1.156-.336C1045.63,666.626,1045.378,666.575,1045.094,666.51Z" transform="translate(-666.686 -530.472)"/><path class="n" d="M1038.044,665.18l-.839.775c-.536.491-.73,1.149-.439,1.472s.981.194,1.517-.3l1.4-1.291a2.024,2.024,0,0,0,.329-.387c-.394-.065-.788-.136-1.195-.187Z" transform="translate(-664.272 -530.001)"/><path class="f" d="M584.44,569.6l7.935-3.745c5.526-2.634,12.706,14.785,7.9,17.083l-8.135.032Z" transform="translate(-504.022 -494.704)"/><g class="o" transform="translate(102.175 12.138)"><path class="p" d="M203.608,19.969l19.6-1.169-43.65,78.436-21.3.077Z" transform="translate(-158.26 -18.8)"/></g><g class="o" transform="translate(158.066 65.072)"><path class="p" d="M244.83,126.369l14.914-25.579.207,8.593-8.787,16.986Z" transform="translate(-244.83 -100.79)"/></g><path class="q" d="M478.562,666.44c.084-3.525.187-6.456.3-9.813a4.467,4.467,0,0,0-2.111-3.79c-4.442-2.363-8.709-4.849-12.912-5.217a52.823,52.823,0,0,0-.742,20.324c4.726-.071,9.465-.148,14.2-.207a1.291,1.291,0,0,0,1.265-1.3Z" transform="translate(-460.788 -523.778)"/><path class="r" d="M477.607,666.316c.077-3.131.181-5.733.278-8.716a3.925,3.925,0,0,0-1.982-3.37c-4.19-2.092-8.348-4.28-12.267-4.61a44.238,44.238,0,0,0-.71,18.032l13.558-.187a1.182,1.182,0,0,0,1.123-1.149Z" transform="translate(-460.744 -524.486)"/><path class="s" d="M1143.3,658.538a.794.794,0,0,0,.788.943h7.405a216.569,216.569,0,0,0,0-30.77C1148.306,637.839,1144.684,648.531,1143.3,658.538Z" transform="translate(-702.07 -517.076)"/><path class="t" d="M715.927,614.905h-13.2a2.4,2.4,0,0,1-2.641-2.034v-1.7a2.4,2.4,0,0,1,2.641-2.034h13.2a2.394,2.394,0,0,1,2.634,2.034v1.7A2.394,2.394,0,0,1,715.927,614.905Z" transform="translate(-545.007 -510.141)"/><rect class="e" width="0.665" height="162.398" transform="translate(184.11 4.817)"/><path class="d" d="M573.109,571.49c-8.219,0-14.849,9.516-14.849,12.744,0,7.037,6.656,12.744,14.849,12.744,6.03,0,5.907-11.492,3.822-24.475C576.712,571.161,574.646,571.49,573.109,571.49Z" transform="translate(-494.745 -496.786)"/><path class="u" d="M573.672,573.68c-8.219,0-14.881,9.516-14.881,12.744,0,7.031,6.663,12.738,14.881,12.738,6.024,0,5.9-11.485,3.822-24.469C577.274,573.344,575.2,573.68,573.672,573.68Z" transform="translate(-494.933 -497.561)"/><path class="v" d="M480.612,655.438c-1.659-.826-3.312-1.666-4.952-2.408v15.721l5.494-.077a1.181,1.181,0,0,0,1.162-1.149c.077-3.131.181-5.733.278-8.716A3.925,3.925,0,0,0,480.612,655.438Z" transform="translate(-465.473 -525.695)"/><rect class="w" width="4.823" height="23.165" transform="translate(346.269 39.228)"/><path class="w" d="M596.73,83.918V60.76h15.986v4.029H601.553v5.539h8.768V74.35h-8.768V79.89h11.163v4.029Z" transform="translate(-211.472 -21.532)"/><path class="w" d="M499.97,83.918V60.76h4.823V79.89h10.362v4.029Z" transform="translate(-177.182 -21.532)"/><rect class="w" width="4.823" height="23.165" transform="translate(359.388 39.228)"/><path class="w" d="M572.282,83.918,562.63,72.336l9.716-11.576h6.082l-9.691,11.576,9.691,11.582Z" transform="translate(-199.388 -21.532)"/><rect class="w" width="4.823" height="23.165" transform="translate(259.925 39.228)"/><path class="w" d="M366.23,83.918V60.76h4.823V79.89h10.362v4.029Z" transform="translate(-129.786 -21.532)"/><path class="w" d="M422.91,83.918V60.76h17.18v4.029H427.733v5.539h9.962V74.35h-9.962v9.568Z" transform="translate(-149.873 -21.532)"/><path class="w" d="M462.36,83.918V60.76h15.985v4.029H467.183v5.539h8.767V74.35h-8.767V79.89h11.163v4.029Z" transform="translate(-163.853 -21.532)"/></g></svg>