<svg xmlns="http://www.w3.org/2000/svg" width="32" height="32" viewBox="0 0 32 32">
    <g fill="#333" fill-rule="nonzero">
            <path xmlns="http://www.w3.org/2000/svg" d="M11.335 13.503H1.79C.8 13.503 0 12.68 0 11.662V9.514c0-.34.267-.614.597-.614.33 0 .596.275.596.614v2.148c0 .339.267.614.597.614h9.545c.33 0 .597-.275.597-.614V9.514c0-.34.267-.614.596-.614.33 0 .597.275.597.614v2.148c0 1.017-.801 1.841-1.79 1.841z" transform="translate(9.5 8)"/>
            <path d="M6.563 10.34c-.159-.002-.31-.069-.421-.185L3.234 7.086c-.161-.154-.227-.387-.17-.606.056-.219.224-.388.438-.44.214-.052.439.02.585.19l2.476 2.627 2.63-2.64c.239-.217.6-.203.823.031.223.235.227.608.01.847l-3.058 3.07c-.108.108-.254.171-.405.174z" transform="translate(9.5 8)"/>
            <path d="M6.563 10.336c-.33 0-.597-.275-.597-.614V.614c0-.34.267-.614.596-.614.33 0 .597.275.597.614v9.108c0 .34-.267.614-.596.614z" transform="translate(9.5 8)"/>
        </g>
</svg>